<svg width="62" height="48" viewBox="0 0 62 48" fill="none" xmlns="http://www.w3.org/2000/svg">
<rect x="0.5" y="1" width="61" height="46" rx="23" fill="#1D1E1C"/>
<rect x="0.5" y="1" width="61" height="46" rx="23" stroke="#1D1E1C"/>
<path d="M40.7074 32.2926C40.8004 32.3855 40.8741 32.4958 40.9243 32.6172C40.9746 32.7386 41.0005 32.8687 41.0005 33.0001C41.0005 33.1315 40.9746 33.2616 40.9243 33.383C40.8741 33.5044 40.8004 33.6147 40.7074 33.7076C40.6145 33.8005 40.5042 33.8742 40.3828 33.9245C40.2614 33.9747 40.1313 34.0006 39.9999 34.0006C39.8686 34.0006 39.7384 33.9747 39.6171 33.9245C39.4957 33.8742 39.3854 33.8005 39.2924 33.7076L30.9999 25.4138L22.7074 33.7076C22.5198 33.8952 22.2653 34.0006 21.9999 34.0006C21.7346 34.0006 21.4801 33.8952 21.2924 33.7076C21.1048 33.5199 20.9994 33.2654 20.9994 33.0001C20.9994 32.7347 21.1048 32.4802 21.2924 32.2926L29.5862 24.0001L21.2924 15.7076C21.1048 15.5199 20.9994 15.2654 20.9994 15.0001C20.9994 14.7347 21.1048 14.4802 21.2924 14.2926C21.4801 14.1049 21.7346 13.9995 21.9999 13.9995C22.2653 13.9995 22.5198 14.1049 22.7074 14.2926L30.9999 22.5863L39.2924 14.2926C39.4801 14.1049 39.7346 13.9995 39.9999 13.9995C40.2653 13.9995 40.5198 14.1049 40.7074 14.2926C40.8951 14.4802 41.0005 14.7347 41.0005 15.0001C41.0005 15.2654 40.8951 15.5199 40.7074 15.7076L32.4137 24.0001L40.7074 32.2926Z" fill="white"/>
</svg>
